<svg width="18" height="18" viewBox="0 0 18 18" fill="none" xmlns="http://www.w3.org/2000/svg">
<path fill-rule="evenodd" clip-rule="evenodd" d="M6.04914 7.39996H2.808C2.33242 7.39631 1.87475 7.56912 1.53569 7.88035C1.19662 8.19157 1.00392 8.61575 1 9.05956V15.3406C1.0088 16.2645 1.8181 17.007 2.808 16.9992H6.04914C6.52469 17.0029 6.9824 16.8301 7.32149 16.5189C7.66057 16.2077 7.85326 15.7835 7.85714 15.3396V9.05956C7.85326 8.61575 7.66057 8.19157 7.32149 7.88035C6.9824 7.56912 6.52469 7.39631 6.04914 7.39996Z" stroke="#97A5B9" stroke-linecap="round" stroke-linejoin="round"/>
<path fill-rule="evenodd" clip-rule="evenodd" d="M6.04914 1.00064H2.808C1.83801 0.975537 1.02925 1.68786 1 2.59305V3.67456C1.02925 4.57975 1.83801 5.29208 2.808 5.26696H6.04914C7.01909 5.29208 7.82789 4.57975 7.85714 3.67456V2.59305C7.82789 1.68786 7.01909 0.975537 6.04914 1.00064Z" stroke="#97A5B9" stroke-linecap="round" stroke-linejoin="round"/>
<path fill-rule="evenodd" clip-rule="evenodd" d="M11.9511 10.6003H15.1911C15.6668 10.6042 16.1248 10.4316 16.4641 10.1203C16.8034 9.80899 16.9963 9.38471 17.0002 8.94069V2.66063C16.9963 2.21681 16.8036 1.79261 16.4646 1.48137C16.1255 1.17013 15.6678 0.997344 15.1922 1.00103H11.9511C11.4755 0.997344 11.0178 1.17013 10.6787 1.48137C10.3396 1.79261 10.147 2.21681 10.1431 2.66063V8.94069C10.147 9.38449 10.3396 9.80867 10.6787 10.1199C11.0178 10.4311 11.4755 10.6039 11.9511 10.6003Z" stroke="#97A5B9" stroke-linecap="round" stroke-linejoin="round"/>
<path fill-rule="evenodd" clip-rule="evenodd" d="M11.9511 16.9994H15.1911C16.1615 17.0251 16.971 16.3126 17.0002 15.407V14.3255C16.971 13.4203 16.1622 12.708 15.1922 12.7331H11.9511C10.9811 12.708 10.1723 13.4203 10.1431 14.3255V15.4059C10.1716 16.3115 10.9807 17.0244 11.9511 16.9994Z" stroke="#97A5B9" stroke-linecap="round" stroke-linejoin="round"/>
</svg>
