<svg width="16" height="16" viewBox="0 0 16 16" fill="none" xmlns="http://www.w3.org/2000/svg">
<g clip-path="url(#clip0_74_38)">
<path d="M8 0C3.57844 0 0 3.57803 0 8C0 12.4216 3.57803 16 8 16C12.4216 16 16 12.422 16 8C16 3.57844 12.422 0 8 0ZM14.913 7.46666H9.28756L13.2628 3.49144C14.195 4.578 14.7975 5.95519 14.913 7.46666ZM8 1.06666C9.71997 1.06666 11.2955 1.69641 12.5086 2.73719L8 7.24575L3.49144 2.73719C4.70456 1.69644 6.28003 1.06666 8 1.06666ZM8 14.9333C4.17697 14.9333 1.06666 11.8231 1.06666 8C1.06666 6.28003 1.69644 4.70453 2.73719 3.49141L7.62288 8.37709C7.72497 8.47922 7.86284 8.53331 7.99997 8.53331H14.913C14.6398 12.1082 11.6436 14.9333 8 14.9333Z" fill="#97A5B9"/>
</g>
<defs>
<clipPath id="clip0_74_38">
<rect width="16" height="16" fill="white"/>
</clipPath>
</defs>
</svg>
