<?xml version="1.0" encoding="iso-8859-1"?>
<!-- Uploaded to: SVG Repo, www.svgrepo.com, Generator: SVG Repo Mixer Tools -->
<svg fill="#000000" height="800px" width="800px" version="1.1" id="Layer_1" xmlns="http://www.w3.org/2000/svg" xmlns:xlink="http://www.w3.org/1999/xlink" 
	 viewBox="0 0 512 512" xml:space="preserve">
<g>
	<g>
		<path d="M256,0C114.51,0,0,114.497,0,256c0,141.49,114.497,256,256,256c141.49,0,256-114.497,256-256C512,114.51,397.503,0,256,0z
			 M477.217,238.933H297.202l127.207-127.207C454.24,146.496,473.52,190.566,477.217,238.933z M256,34.133
			c55.039,0,105.455,20.152,144.274,53.457L256,231.864L111.726,87.59C150.546,54.286,200.961,34.133,256,34.133z M256,477.867
			c-122.337,0-221.867-99.529-221.867-221.867c0-55.039,20.153-105.455,53.457-144.275l156.342,156.342
			c3.267,3.268,7.679,4.999,12.067,4.999h221.217C468.473,387.461,372.596,477.867,256,477.867z"/>
	</g>
</g>
</svg>