<svg width="21" height="16" viewBox="0 0 21 16" fill="none" xmlns="http://www.w3.org/2000/svg">
<path d="M1.26069 16C0.927033 16 0.60698 15.8677 0.37067 15.6322C0.13436 15.3966 0.00106686 15.077 0 14.7433V13.014L0.00302326 2.51937C0.00302326 1.85119 0.268456 1.21038 0.740929 0.737906C1.2134 0.265433 1.85421 0 2.52239 0H17.5096C17.8405 0 18.1681 0.0651656 18.4737 0.191776C18.7794 0.318386 19.0571 0.503961 19.2911 0.737906C19.525 0.971851 19.7106 1.24958 19.8372 1.55525C19.9638 1.86091 20.029 2.18852 20.029 2.51937V10.9945C20.029 11.3254 19.9638 11.653 19.8372 11.9586C19.7106 12.2643 19.525 12.542 19.2911 12.776C19.0571 13.0099 18.7794 13.1955 18.4737 13.3221C18.1681 13.4487 17.8405 13.5139 17.5096 13.5139H4.8906C4.69214 13.5134 4.49555 13.5522 4.3122 13.6282C4.12885 13.7041 3.96237 13.8156 3.82238 13.9563L2.15154 15.6302C2.03476 15.7475 1.89593 15.8406 1.74305 15.904C1.59016 15.9675 1.42623 16.0001 1.26069 16ZM2.52239 1.00976C2.12148 1.00976 1.737 1.16902 1.45351 1.45251C1.17003 1.73599 1.01077 2.12048 1.01077 2.52138L1.00271 13.013V14.7403C1.00282 14.7901 1.01769 14.8388 1.04544 14.8801C1.0732 14.9215 1.11259 14.9537 1.15864 14.9727C1.20469 14.9917 1.25533 14.9966 1.30417 14.9868C1.353 14.977 1.39784 14.9529 1.43302 14.9177L3.10991 13.2418C3.34318 13.0072 3.62068 12.8212 3.92634 12.6945C4.232 12.5679 4.55975 12.5032 4.8906 12.5041H17.5096C17.9105 12.5041 18.295 12.3449 18.5785 12.0614C18.862 11.7779 19.0212 11.3934 19.0212 10.9925V2.52138C19.0212 2.12048 18.862 1.73599 18.5785 1.45251C18.295 1.16902 17.9105 1.00976 17.5096 1.00976H2.52239Z" fill="#97A5B9"/>
</svg>
