<svg width="16" height="16" viewBox="0 0 16 16" fill="none" xmlns="http://www.w3.org/2000/svg">
<g clip-path="url(#clip0_74_21)">
<path d="M2.42528 14H4.07469C4.30956 14 4.49997 13.8095 4.49997 13.5747V9.84667C4.49997 9.61179 4.30953 9.42139 4.07469 9.42139H2.42528C2.19041 9.42139 2 9.61182 2 9.84667V13.5747C2 13.8095 2.19044 14 2.42528 14Z" fill="#97A5B9"/>
<path d="M6.17528 14H7.82469C8.05956 14 8.24997 13.8095 8.24997 13.5747V7.34667C8.24997 7.11179 8.05953 6.92139 7.82469 6.92139H6.17528C5.94041 6.92139 5.75 7.11182 5.75 7.34667V13.5747C5.75 13.8095 5.94044 14 6.17528 14Z" fill="#97A5B9"/>
<path d="M9.92528 14H11.5747C11.8096 14 12 13.8095 12 13.5747V4.34667C12 4.11179 11.8095 3.92139 11.5747 3.92139H9.92528C9.69041 3.92139 9.5 4.11182 9.5 4.34667V13.5747C9.5 13.8095 9.69044 14 9.92528 14Z" fill="#97A5B9"/>
<path d="M13.6753 14H15.3247C15.5596 14 15.75 13.8095 15.75 13.5747V1.34667C15.75 1.11179 15.5595 0.921387 15.3247 0.921387H13.6753C13.4404 0.921387 13.25 1.11182 13.25 1.34667V13.5747C13.25 13.8095 13.4404 14 13.6753 14Z" fill="#97A5B9"/>
<path d="M15.5747 15.0625H1.42528C1.19044 15.0625 1 14.8721 1 14.6372V0.425281C1 0.190438 0.809563 0 0.574719 0H0.425312C0.190437 0 0 0.190438 0 0.425281V15.5747C0 15.8096 0.190438 16 0.425281 16H15.5747C15.8096 16 16 15.8096 16 15.5747V15.4878C16 15.2529 15.8096 15.0625 15.5747 15.0625Z" fill="#97A5B9"/>
</g>
<defs>
<clipPath id="clip0_74_21">
<rect width="16" height="16" fill="white"/>
</clipPath>
</defs>
</svg>
