<svg width="16" height="16" viewBox="0 0 16 16" fill="none" xmlns="http://www.w3.org/2000/svg">
<g clip-path="url(#clip0_74_49)">
<path d="M2.1398 14.2001C2.22819 14.2001 2.2998 14.1285 2.2998 14.0401V9.54298C2.2998 9.45459 2.22819 9.38298 2.1398 9.38298H0.859797C0.838785 9.38297 0.817977 9.38711 0.798563 9.39515C0.779149 9.40319 0.761509 9.41497 0.746651 9.42983C0.731793 9.44469 0.720008 9.46233 0.711968 9.48174C0.703929 9.50116 0.699793 9.52197 0.699797 9.54298V14.0401C0.699797 14.1285 0.771407 14.2001 0.859797 14.2001H2.1398ZM2.1398 14.8401H0.859797C0.417954 14.8401 0.0597973 14.4819 0.0597973 14.0401V9.54298C0.0597973 9.10113 0.417954 8.74298 0.859797 8.74298H2.1398C2.58164 8.74298 2.9398 9.10113 2.9398 9.54298V14.0401C2.9398 14.4819 2.58164 14.8401 2.1398 14.8401ZM6.49002 14.2001C6.57841 14.2001 6.65002 14.1285 6.65002 14.0401V8.61434C6.65002 8.52595 6.57841 8.45434 6.49002 8.45434H5.21002C5.189 8.45433 5.1682 8.45847 5.14878 8.46651C5.12937 8.47455 5.11173 8.48633 5.09687 8.50119C5.08201 8.51605 5.07023 8.53369 5.06219 8.5531C5.05415 8.57252 5.05001 8.59332 5.05002 8.61434V14.0401C5.05002 14.1285 5.12163 14.2001 5.21002 14.2001H6.49002ZM6.49002 14.8401H5.21002C4.76817 14.8401 4.41002 14.4819 4.41002 14.0401V8.61434C4.41002 8.17249 4.76817 7.81434 5.21002 7.81434H6.49002C6.93186 7.81434 7.29002 8.17249 7.29002 8.61434V14.0401C7.29002 14.4819 6.93186 14.8401 6.49002 14.8401ZM10.8402 14.2098C10.9286 14.2098 11.0002 14.1381 11.0002 14.0498V7.6952C11.0002 7.6069 10.9285 7.5352 10.8402 7.5352H9.56024C9.47192 7.5352 9.40024 7.6069 9.40024 7.6952V14.0498C9.40024 14.1381 9.47184 14.2098 9.56024 14.2098H10.8402ZM10.8402 14.8498H9.56024C9.11839 14.8498 8.76023 14.4916 8.76023 14.0498V7.6952C8.76023 7.25346 9.11842 6.8952 9.56024 6.8952H10.8402C11.282 6.8952 11.6402 7.25346 11.6402 7.6952V14.0498C11.6402 14.4916 11.2821 14.8498 10.8402 14.8498ZM15.1905 14.2098C15.2788 14.2098 15.3505 14.1382 15.3505 14.0498V6.89523C15.3505 6.80684 15.2788 6.73523 15.1905 6.73523H13.9105C13.8894 6.73522 13.8686 6.73936 13.8492 6.7474C13.8298 6.75544 13.8122 6.76722 13.7973 6.78208C13.7824 6.79694 13.7707 6.81458 13.7626 6.83399C13.7546 6.85341 13.7504 6.87422 13.7505 6.89523V14.0498C13.7505 14.1382 13.8221 14.2098 13.9105 14.2098H15.1905ZM15.1905 14.8498H13.9105C13.4686 14.8498 13.1105 14.4916 13.1105 14.0498V6.89523C13.1105 6.45338 13.4686 6.09523 13.9105 6.09523H15.1905C15.6323 6.09523 15.9905 6.45338 15.9905 6.89523V14.0498C15.9905 14.4916 15.6323 14.8498 15.1905 14.8498ZM15.0935 1.69507C10.584 4.23568 5.55105 5.73448 0.300688 6.05206C0.124282 6.06273 -0.0100777 6.21438 0.000594186 6.39079C0.0112661 6.5672 0.162922 6.70156 0.339329 6.69088C5.68708 6.36742 10.8142 4.84059 15.4076 2.25267C15.5616 2.16592 15.6161 1.97077 15.5294 1.81679C15.4426 1.66281 15.2475 1.60832 15.0935 1.69507Z" fill="#97A5B9"/>
<path d="M14.0815 1.76012L15.6813 1.76252C15.8581 1.76279 16.0015 1.61974 16.0018 1.44301C16.0021 1.26627 15.859 1.12279 15.6823 1.12252L14.0824 1.12012C13.9057 1.11985 13.7622 1.2629 13.762 1.43963C13.7617 1.61637 13.9047 1.75985 14.0815 1.76012Z" fill="#97A5B9"/>
<path d="M15.3617 1.44135L15.3569 3.03239C15.3564 3.20913 15.4992 3.35283 15.676 3.35336C15.8527 3.35389 15.9964 3.21107 15.9969 3.03433L16.0017 1.44328C16.0023 1.26655 15.8594 1.12285 15.6827 1.12232C15.506 1.12178 15.3623 1.26461 15.3617 1.44135Z" fill="#97A5B9"/>
</g>
<defs>
<clipPath id="clip0_74_49">
<rect width="16" height="16" fill="white"/>
</clipPath>
</defs>
</svg>
