<svg width="16" height="16" viewBox="0 0 16 16" fill="none" xmlns="http://www.w3.org/2000/svg">
<path fill-rule="evenodd" clip-rule="evenodd" d="M14.5304 6.544C14.2774 4 12.7427 0 7.99992 0C3.25714 0 1.72246 4 1.46941 6.544C0.581673 6.87418 -0.00388936 7.70947 1.94501e-05 8.64V9.76C1.94501e-05 10.9971 1.02337 12 2.28572 12C3.54807 12 4.5714 10.9971 4.5714 9.76V8.64C4.5673 7.72955 4.00324 6.91144 3.14285 6.568C3.30611 5.096 4.1061 1.6 7.99992 1.6C11.8937 1.6 12.6856 5.096 12.8488 6.568C11.9902 6.91218 11.429 7.73084 11.4284 8.64V9.76C11.432 10.62 11.9359 11.4026 12.7264 11.776C12.3835 12.408 11.5101 13.264 9.36317 13.52C8.93401 12.8814 8.10372 12.6296 7.38152 12.9191C6.65932 13.2086 6.24712 13.9585 6.39773 14.7088C6.54833 15.4591 7.21964 16 7.99992 16C8.61652 15.9967 9.17859 15.6532 9.45296 15.112C12.955 14.72 14.0733 12.952 14.4243 11.912C15.374 11.6105 16.0126 10.7382 15.9998 9.76V8.64C16.0037 7.70947 15.4182 6.87418 14.5304 6.544ZM2.93877 9.76C2.93877 10.1135 2.64639 10.4 2.28572 10.4C1.92505 10.4 1.63267 10.1135 1.63267 9.76V8.64C1.63267 8.41135 1.75714 8.20007 1.95919 8.08574C2.16125 7.97142 2.41019 7.97142 2.61225 8.08574C2.8143 8.20007 2.93877 8.41135 2.93877 8.64V9.76ZM13.0611 8.64C13.0611 8.28654 13.3535 8 13.7141 8C14.0748 8 14.3672 8.28654 14.3672 8.64V9.76C14.3672 10.1135 14.0748 10.4 13.7141 10.4C13.3535 10.4 13.0611 10.1135 13.0611 9.76V8.64Z" fill="#97A5B9"/>
</svg>
