<svg width="16" height="16" viewBox="0 0 16 16" fill="none" xmlns="http://www.w3.org/2000/svg">
<g clip-path="url(#clip0_74_28)">
<path d="M13.3334 10.0001C13.7016 10.0001 14.0001 9.70161 14.0001 9.33341C14.0001 8.96521 13.7016 8.66675 13.3334 8.66675C12.9652 8.66675 12.6667 8.96521 12.6667 9.33341C12.6667 9.70161 12.9652 10.0001 13.3334 10.0001Z" fill="#97A5B9"/>
<path fill-rule="evenodd" clip-rule="evenodd" d="M11.1834 0.656932C12.328 0.307188 13.5215 1.03432 13.7356 2.21187L13.9575 3.43264C14.7565 3.69483 15.3334 4.44671 15.3334 5.33333V7.17593C15.7425 7.54213 16.0001 8.07433 16.0001 8.66667V10C16.0001 10.5923 15.7425 11.1245 15.3334 11.4907V13.3333C15.3334 14.4379 14.438 15.3333 13.3334 15.3333H2.66675C1.56218 15.3333 0.666748 14.4379 0.666748 13.3333V5.33333C0.666748 4.34206 1.38791 3.51923 2.3342 3.36085L11.1834 0.656932ZM14.0001 10.6667C14.3683 10.6667 14.6667 10.3682 14.6667 10V8.66667C14.6667 8.29847 14.3683 8 14.0001 8H12.0001C11.6319 8 11.3334 8.29847 11.3334 8.66667V10C11.3334 10.3682 11.6319 10.6667 12.0001 10.6667H14.0001ZM14.0001 12V13.3333C14.0001 13.7015 13.7016 14 13.3334 14H2.66675C2.29856 14 2.00008 13.7015 2.00008 13.3333V5.33333C2.00008 4.96515 2.29856 4.66667 2.66675 4.66667H13.3334C13.7001 4.66667 13.9975 4.96264 14.0001 5.32869V6.66667H12.0001C10.8955 6.66667 10.0001 7.56207 10.0001 8.66667V10C10.0001 11.1046 10.8955 12 12.0001 12H14.0001ZM12.4637 2.4047L12.6275 3.33333H6.66675L11.6155 1.88201C11.9977 1.76736 12.3943 2.01179 12.4637 2.4047Z" fill="#97A5B9"/>
</g>
<defs>
<clipPath id="clip0_74_28">
<rect width="16" height="16" fill="white"/>
</clipPath>
</defs>
</svg>
